<svg width="306" height="160" viewBox="0 0 306 160" fill="none" xmlns="http://www.w3.org/2000/svg">
<rect width="306" height="160" fill="white"/>
<circle cx="83.7" cy="79.7044" r="37.5" fill="#031930"/>
<rect x="10.1082" y="123.905" width="102" height="39" rx="19.5" transform="rotate(-57.77 10.1082 123.905)" fill="#256FB0"/>
<rect x="69.1084" y="102.905" width="102" height="39" rx="19.5" transform="rotate(-57.77 69.1084 102.905)" fill="#104594"/>
<path d="M152.507 102.204V60.2044H160.547L178.427 89.8444H174.167L191.747 60.2044H199.727L199.847 102.204H190.727L190.667 74.1844H192.347L178.307 97.7644H173.927L159.587 74.1844H161.627V102.204H152.507ZM218.511 102.204V68.1244H205.071V60.2044H241.671V68.1244H228.231V102.204H218.511ZM246.901 102.204V60.2044H256.621V102.204H246.901ZM280.389 102.924C277.029 102.924 273.809 102.484 270.729 101.604C267.649 100.684 265.169 99.5044 263.289 98.0644L266.589 90.7444C268.389 92.0244 270.509 93.0844 272.949 93.9244C275.429 94.7244 277.929 95.1244 280.449 95.1244C282.369 95.1244 283.909 94.9444 285.069 94.5844C286.269 94.1844 287.149 93.6444 287.709 92.9644C288.269 92.2844 288.549 91.5044 288.549 90.6244C288.549 89.5044 288.109 88.6244 287.229 87.9844C286.349 87.3044 285.189 86.7644 283.749 86.3644C282.309 85.9244 280.709 85.5244 278.949 85.1644C277.229 84.7644 275.489 84.2844 273.729 83.7244C272.009 83.1644 270.429 82.4444 268.989 81.5644C267.549 80.6844 266.369 79.5244 265.449 78.0844C264.569 76.6444 264.129 74.8044 264.129 72.5644C264.129 70.1644 264.769 67.9844 266.049 66.0244C267.369 64.0244 269.329 62.4444 271.929 61.2844C274.569 60.0844 277.869 59.4844 281.829 59.4844C284.469 59.4844 287.069 59.8044 289.629 60.4444C292.189 61.0444 294.449 61.9644 296.409 63.2044L293.409 70.5844C291.449 69.4644 289.489 68.6444 287.529 68.1244C285.569 67.5644 283.649 67.2844 281.769 67.2844C279.889 67.2844 278.349 67.5044 277.149 67.9444C275.949 68.3844 275.089 68.9644 274.569 69.6844C274.049 70.3644 273.789 71.1644 273.789 72.0844C273.789 73.1644 274.229 74.0444 275.109 74.7244C275.989 75.3644 277.149 75.8844 278.589 76.2844C280.029 76.6844 281.609 77.0844 283.329 77.4844C285.089 77.8844 286.829 78.3444 288.549 78.8644C290.309 79.3844 291.909 80.0844 293.349 80.9644C294.789 81.8444 295.949 83.0044 296.829 84.4444C297.749 85.8844 298.209 87.7044 298.209 89.9044C298.209 92.2644 297.549 94.4244 296.229 96.3844C294.909 98.3444 292.929 99.9244 290.289 101.124C287.689 102.324 284.389 102.924 280.389 102.924Z" fill="black"/>
</svg>
