<svg width="291" height="129" viewBox="0 0 291 129" fill="none" xmlns="http://www.w3.org/2000/svg">
<circle cx="73.5918" cy="63.0831" r="37.5" fill="#D9D9D9"/>
<rect y="107.283" width="102" height="39" rx="19.5" transform="rotate(-57.77 0 107.283)" fill="#B6B2B2"/>
<rect x="59.0002" y="86.2832" width="102" height="39" rx="19.5" transform="rotate(-57.77 59.0002 86.2832)" fill="white"/>
<path d="M142.398 85.5831V43.5831H150.438L168.318 73.2231H164.058L181.638 43.5831H189.618L189.738 85.5831H180.618L180.558 57.5631H182.238L168.198 81.1431H163.818L149.478 57.5631H151.518V85.5831H142.398ZM208.403 85.5831V51.5031H194.963V43.5831H231.563V51.5031H218.123V85.5831H208.403ZM236.793 85.5831V43.5831H246.513V85.5831H236.793ZM270.28 86.3031C266.92 86.3031 263.7 85.8631 260.62 84.9831C257.54 84.0631 255.06 82.8831 253.18 81.4431L256.48 74.1231C258.28 75.4031 260.4 76.4631 262.84 77.3031C265.32 78.1031 267.82 78.5031 270.34 78.5031C272.26 78.5031 273.8 78.3231 274.96 77.9631C276.16 77.5631 277.04 77.0231 277.6 76.3431C278.16 75.6631 278.44 74.8831 278.44 74.0031C278.44 72.8831 278 72.0031 277.12 71.3631C276.24 70.6831 275.08 70.1431 273.64 69.7431C272.2 69.3031 270.6 68.9031 268.84 68.5431C267.12 68.1431 265.38 67.6631 263.62 67.1031C261.9 66.5431 260.32 65.8231 258.88 64.9431C257.44 64.0631 256.26 62.9031 255.34 61.4631C254.46 60.0231 254.02 58.1831 254.02 55.9431C254.02 53.5431 254.66 51.3631 255.94 49.4031C257.26 47.4031 259.22 45.8231 261.82 44.6631C264.46 43.4631 267.76 42.8631 271.72 42.8631C274.36 42.8631 276.96 43.1831 279.52 43.8231C282.08 44.4231 284.34 45.3431 286.3 46.5831L283.3 53.9631C281.34 52.8431 279.38 52.0231 277.42 51.5031C275.46 50.9431 273.54 50.6631 271.66 50.6631C269.78 50.6631 268.24 50.8831 267.04 51.3231C265.84 51.7631 264.98 52.3431 264.46 53.0631C263.94 53.7431 263.68 54.5431 263.68 55.4631C263.68 56.5431 264.12 57.4231 265 58.1031C265.88 58.7431 267.04 59.2631 268.48 59.6631C269.92 60.0631 271.5 60.4631 273.22 60.8631C274.98 61.2631 276.72 61.7231 278.44 62.2431C280.2 62.7631 281.8 63.4631 283.24 64.3431C284.68 65.2231 285.84 66.3831 286.72 67.8231C287.64 69.2631 288.1 71.0831 288.1 73.2831C288.1 75.6431 287.44 77.8031 286.12 79.7631C284.8 81.7231 282.82 83.3031 280.18 84.5031C277.58 85.7031 274.28 86.3031 270.28 86.3031Z" fill="white"/>
</svg>
